# xmcd
#
# Track frame offsets: 
#        150
#        19905
#        38172
#        58627
#        76897
#        100799
#        116986
#        140583
#        159103
#        173618
#        190904
#        211384
#
# Disc length: 3066 seconds
#
# Revision: 0
# Processed by: cddbd v1.5.2PL0 Copyright (c) Steve Scherf et al.
# Submitted via: ExactAudioCopyFreeDBPlugin 1.0
#
DISCID=9a0bf80c
DTITLE=Alberto Colombo - Never Look Back
DYEAR=2010
DGENRE=Blues
TTITLE0=Wake Up
TTITLE1=Tears Of Joy
TTITLE2=Call You No More
TTITLE3=Hasta Luego Cabron
TTITLE4=Close To You
TTITLE5=No One Like You
TTITLE6=Let's Hang Out
TTITLE7=Lovin You Baby
TTITLE8=Baby Please Don't Go
TTITLE9=Octopus Jump Again
TTITLE10=Never Look Back
TTITLE11=La Bruja Y La Luna
EXTD=
EXTT0=
EXTT1=
EXTT2=
EXTT3=
EXTT4=
EXTT5=
EXTT6=
EXTT7=
EXTT8=
EXTT9=
EXTT10=
EXTT11=
PLAYORDER=
